<svg width="40" height="40" viewBox="0 0 40 40" fill="none" xmlns="http://www.w3.org/2000/svg">
<path opacity="0.15" d="M32 22C32 18.134 28.866 15 25 15C24.738 15 24.479 15.015 24.224 15.044C23.155 11.057 19.52 8 15.167 8C9.926 8 5.667 12.259 5.667 17.5C5.667 17.837 5.683 18.17 5.714 18.5C3.573 19.442 2 21.557 2 24C2 27.314 4.686 30 8 30H30C33.314 30 36 27.314 36 24C36 21.557 34.427 19.442 32.286 18.5C32.286 18.5 32 20 32 22Z" fill="url(#paint0_linear)"/>
<path d="M30 31H8C4.134 31 1 27.866 1 24C1 21.186 2.72 18.766 5.197 17.657C5.069 17.112 5 16.544 5 15.964C5 11.011 9.029 7 14 7C17.632 7 20.763 9.232 22.122 12.421C22.898 12.148 23.731 12 24.6 12C28.796 12 32.2 15.404 32.2 19.6C32.2 19.735 32.196 19.868 32.189 20.001C34.916 20.554 37 22.989 37 25.889C37 29.266 34.194 32 30.727 32H8M8 29H30.727C32.537 29 34 27.607 34 25.889C34 24.17 32.537 22.778 30.727 22.778C30.33 22.778 29.952 22.853 29.604 22.989L28.2 23.537L28.2 22.033C28.2 22.022 28.2 22.011 28.2 22C28.2 22 28.2 19.6 28.2 19.6C28.2 17.612 26.588 16 24.6 16C23.949 16 23.336 16.168 22.8 16.464L21.2 17.348L20.88 15.544C20.355 12.585 17.737 10.4 14.6 10.4C11.066 10.4 8.2 13.266 8.2 16.8C8.2 17.607 8.354 18.378 8.636 19.086L9.2 20.5L7.695 20.716C5.568 21.021 4 22.856 4 25C4 27.347 5.91 29.25 8.273 29.25L8 29Z" fill="url(#paint1_linear)"/>
<defs>
<linearGradient id="paint0_linear" x1="5" y1="8" x2="32" y2="30" gradientUnits="userSpaceOnUse">
<stop offset="0.259336" stop-color="#00B0FF"/>
<stop offset="1" stop-color="#40C4FF"/>
</linearGradient>
<linearGradient id="paint1_linear" x1="5" y1="7" x2="34" y2="32" gradientUnits="userSpaceOnUse">
<stop offset="0.259336" stop-color="#00B0FF"/>
<stop offset="1" stop-color="#40C4FF"/>
</linearGradient>
</defs>
</svg>
