<svg width="40" height="40" viewBox="0 0 40 40" fill="none" xmlns="http://www.w3.org/2000/svg">
<path opacity="0.15" d="M20 6C12.268 6 6 12.268 6 20C6 27.732 12.268 34 20 34C27.732 34 34 27.732 34 20C34 12.268 27.732 6 20 6Z" fill="url(#paint0_linear)"/>
<path d="M20 4C11.163 4 4 11.163 4 20C4 28.837 11.163 36 20 36C28.837 36 36 28.837 36 20C36 11.163 28.837 4 20 4ZM20 6C27.732 6 34 12.268 34 20C34 27.732 27.732 34 20 34C12.268 34 6 27.732 6 20C6 12.268 12.268 6 20 6Z" fill="url(#paint1_linear)"/>
<circle cx="20" cy="14" r="2.5" fill="url(#paint2_linear)"/>
<circle cx="14" cy="20" r="2.5" fill="url(#paint3_linear)"/>
<circle cx="26" cy="20" r="2.5" fill="url(#paint4_linear)"/>
<circle cx="20" cy="26" r="2.5" fill="url(#paint5_linear)"/>
<circle cx="20" cy="20" r="3" fill="url(#paint6_linear)"/>
<path d="M20 16.5V17M20 23V23.5M17 20H16.5M23.5 20H23M17.5 17.5L17 17M23 23L22.5 22.5M17 23L17.5 22.5M22.5 17.5L23 17" stroke="url(#paint7_linear)" stroke-width="1.5" stroke-linecap="round"/>
<defs>
<linearGradient id="paint0_linear" x1="8" y1="6" x2="32" y2="34" gradientUnits="userSpaceOnUse">
<stop offset="0.259336" stop-color="#00B0FF"/>
<stop offset="1" stop-color="#40C4FF"/>
</linearGradient>
<linearGradient id="paint1_linear" x1="8" y1="4" x2="32" y2="36" gradientUnits="userSpaceOnUse">
<stop offset="0.259336" stop-color="#00B0FF"/>
<stop offset="1" stop-color="#40C4FF"/>
</linearGradient>
<linearGradient id="paint2_linear" x1="18" y1="12" x2="22" y2="16" gradientUnits="userSpaceOnUse">
<stop offset="0.259336" stop-color="#00B0FF"/>
<stop offset="1" stop-color="#40C4FF"/>
</linearGradient>
<linearGradient id="paint3_linear" x1="12" y1="18" x2="16" y2="22" gradientUnits="userSpaceOnUse">
<stop offset="0.259336" stop-color="#00B0FF"/>
<stop offset="1" stop-color="#40C4FF"/>
</linearGradient>
<linearGradient id="paint4_linear" x1="24" y1="18" x2="28" y2="22" gradientUnits="userSpaceOnUse">
<stop offset="0.259336" stop-color="#00B0FF"/>
<stop offset="1" stop-color="#40C4FF"/>
</linearGradient>
<linearGradient id="paint5_linear" x1="18" y1="24" x2="22" y2="28" gradientUnits="userSpaceOnUse">
<stop offset="0.259336" stop-color="#00B0FF"/>
<stop offset="1" stop-color="#40C4FF"/>
</linearGradient>
<linearGradient id="paint6_linear" x1="17" y1="17" x2="23" y2="23" gradientUnits="userSpaceOnUse">
<stop offset="0.259336" stop-color="#00B0FF"/>
<stop offset="1" stop-color="#40C4FF"/>
</linearGradient>
<linearGradient id="paint7_linear" x1="17" y1="17" x2="23" y2="23" gradientUnits="userSpaceOnUse">
<stop offset="0.259336" stop-color="#00B0FF"/>
<stop offset="1" stop-color="#40C4FF"/>
</linearGradient>
</defs>
</svg>
